<mxfile host="app.diagrams.net" modified="2022-11-04T22:46:08.053Z" agent="5.0 (Windows NT 10.0; Win64; x64) AppleWebKit/537.36 (KHTML, like Gecko) Chrome/107.0.0.0 Safari/537.36" etag="e4u8xDjRnmGXYf3c4us4" version="20.5.1" type="github">
  <diagram id="Jl-vkHt8qGTOF1rbd81m" name="Page-1">
    <mxGraphModel dx="868" dy="520" grid="1" gridSize="10" guides="1" tooltips="1" connect="1" arrows="1" fold="1" page="1" pageScale="1" pageWidth="850" pageHeight="1100" math="0" shadow="0">
      <root>
        <mxCell id="0" />
        <mxCell id="1" parent="0" />
        <mxCell id="YQ3CQWu9qT-0cRBD3Na1-11" style="edgeStyle=orthogonalEdgeStyle;rounded=0;orthogonalLoop=1;jettySize=auto;html=1;" parent="1" source="B4r_P6-ypOf7uVWQ4bEo-4" target="YQ3CQWu9qT-0cRBD3Na1-9" edge="1">
          <mxGeometry relative="1" as="geometry" />
        </mxCell>
        <mxCell id="YQ3CQWu9qT-0cRBD3Na1-19" value="Kafka" style="edgeLabel;html=1;align=center;verticalAlign=middle;resizable=0;points=[];" parent="YQ3CQWu9qT-0cRBD3Na1-11" vertex="1" connectable="0">
          <mxGeometry x="-0.2267" y="-2" relative="1" as="geometry">
            <mxPoint x="9" as="offset" />
          </mxGeometry>
        </mxCell>
        <mxCell id="YQ3CQWu9qT-0cRBD3Na1-1" value="Location Microservice" style="rounded=1;whiteSpace=wrap;html=1;" parent="1" vertex="1">
          <mxGeometry x="380" y="240" width="120" height="60" as="geometry" />
        </mxCell>
        <mxCell id="YQ3CQWu9qT-0cRBD3Na1-3" style="edgeStyle=orthogonalEdgeStyle;rounded=0;orthogonalLoop=1;jettySize=auto;html=1;entryX=0.5;entryY=0;entryDx=0;entryDy=0;" parent="1" source="YQ3CQWu9qT-0cRBD3Na1-2" target="B4r_P6-ypOf7uVWQ4bEo-4" edge="1">
          <mxGeometry relative="1" as="geometry" />
        </mxCell>
        <mxCell id="YQ3CQWu9qT-0cRBD3Na1-5" value="gRPC" style="edgeLabel;html=1;align=center;verticalAlign=middle;resizable=0;points=[];" parent="YQ3CQWu9qT-0cRBD3Na1-3" vertex="1" connectable="0">
          <mxGeometry x="-0.16" y="1" relative="1" as="geometry">
            <mxPoint x="14" as="offset" />
          </mxGeometry>
        </mxCell>
        <mxCell id="YQ3CQWu9qT-0cRBD3Na1-2" value="Mobile" style="rounded=1;whiteSpace=wrap;html=1;" parent="1" vertex="1">
          <mxGeometry x="110" y="70" width="120" height="60" as="geometry" />
        </mxCell>
        <mxCell id="YQ3CQWu9qT-0cRBD3Na1-17" value="SQL" style="edgeStyle=orthogonalEdgeStyle;rounded=0;orthogonalLoop=1;jettySize=auto;html=1;" parent="1" target="YQ3CQWu9qT-0cRBD3Na1-4" edge="1">
          <mxGeometry relative="1" as="geometry">
            <Array as="points">
              <mxPoint x="579" y="280" />
            </Array>
            <mxPoint x="600" y="400" as="sourcePoint" />
          </mxGeometry>
        </mxCell>
        <mxCell id="YQ3CQWu9qT-0cRBD3Na1-4" value="Person Microservice" style="rounded=1;whiteSpace=wrap;html=1;" parent="1" vertex="1">
          <mxGeometry x="530" y="240" width="120" height="60" as="geometry" />
        </mxCell>
        <mxCell id="YQ3CQWu9qT-0cRBD3Na1-18" style="edgeStyle=orthogonalEdgeStyle;rounded=0;orthogonalLoop=1;jettySize=auto;html=1;exitX=0.855;exitY=0;exitDx=0;exitDy=4.35;exitPerimeter=0;entryX=0.5;entryY=1;entryDx=0;entryDy=0;" parent="1" source="YQ3CQWu9qT-0cRBD3Na1-13" target="YQ3CQWu9qT-0cRBD3Na1-6" edge="1">
          <mxGeometry relative="1" as="geometry">
            <Array as="points">
              <mxPoint x="621" y="360" />
              <mxPoint x="750" y="360" />
            </Array>
          </mxGeometry>
        </mxCell>
        <mxCell id="YQ3CQWu9qT-0cRBD3Na1-21" value="SQL" style="edgeLabel;html=1;align=center;verticalAlign=middle;resizable=0;points=[];" parent="YQ3CQWu9qT-0cRBD3Na1-18" vertex="1" connectable="0">
          <mxGeometry x="-0.0258" relative="1" as="geometry">
            <mxPoint as="offset" />
          </mxGeometry>
        </mxCell>
        <mxCell id="YQ3CQWu9qT-0cRBD3Na1-6" value="Connection Microservice" style="rounded=1;whiteSpace=wrap;html=1;" parent="1" vertex="1">
          <mxGeometry x="690" y="240" width="120" height="60" as="geometry" />
        </mxCell>
        <mxCell id="YQ3CQWu9qT-0cRBD3Na1-14" value="SQL" style="edgeStyle=orthogonalEdgeStyle;rounded=0;orthogonalLoop=1;jettySize=auto;html=1;" parent="1" source="YQ3CQWu9qT-0cRBD3Na1-7" target="YQ3CQWu9qT-0cRBD3Na1-13" edge="1">
          <mxGeometry relative="1" as="geometry" />
        </mxCell>
        <mxCell id="YQ3CQWu9qT-0cRBD3Na1-7" value="Location Processor Microservice" style="rounded=1;whiteSpace=wrap;html=1;" parent="1" vertex="1">
          <mxGeometry x="350" y="410" width="120" height="60" as="geometry" />
        </mxCell>
        <mxCell id="YQ3CQWu9qT-0cRBD3Na1-15" value="REST" style="edgeStyle=orthogonalEdgeStyle;rounded=0;orthogonalLoop=1;jettySize=auto;html=1;" parent="1" source="YQ3CQWu9qT-0cRBD3Na1-8" target="YQ3CQWu9qT-0cRBD3Na1-4" edge="1">
          <mxGeometry x="-0.0222" relative="1" as="geometry">
            <mxPoint as="offset" />
          </mxGeometry>
        </mxCell>
        <mxCell id="YQ3CQWu9qT-0cRBD3Na1-16" style="edgeStyle=orthogonalEdgeStyle;rounded=0;orthogonalLoop=1;jettySize=auto;html=1;" parent="1" source="YQ3CQWu9qT-0cRBD3Na1-8" target="YQ3CQWu9qT-0cRBD3Na1-6" edge="1">
          <mxGeometry relative="1" as="geometry" />
        </mxCell>
        <mxCell id="YQ3CQWu9qT-0cRBD3Na1-22" value="REST" style="edgeLabel;html=1;align=center;verticalAlign=middle;resizable=0;points=[];" parent="YQ3CQWu9qT-0cRBD3Na1-16" vertex="1" connectable="0">
          <mxGeometry x="0.1117" y="-3" relative="1" as="geometry">
            <mxPoint x="3" y="17" as="offset" />
          </mxGeometry>
        </mxCell>
        <mxCell id="B4r_P6-ypOf7uVWQ4bEo-1" style="edgeStyle=orthogonalEdgeStyle;rounded=0;orthogonalLoop=1;jettySize=auto;html=1;entryX=0.5;entryY=0;entryDx=0;entryDy=0;" edge="1" parent="1" source="YQ3CQWu9qT-0cRBD3Na1-8" target="YQ3CQWu9qT-0cRBD3Na1-1">
          <mxGeometry relative="1" as="geometry">
            <mxPoint x="340" y="240" as="targetPoint" />
          </mxGeometry>
        </mxCell>
        <mxCell id="B4r_P6-ypOf7uVWQ4bEo-2" value="REST" style="edgeLabel;html=1;align=center;verticalAlign=middle;resizable=0;points=[];" vertex="1" connectable="0" parent="B4r_P6-ypOf7uVWQ4bEo-1">
          <mxGeometry x="-0.112" y="-1" relative="1" as="geometry">
            <mxPoint y="38" as="offset" />
          </mxGeometry>
        </mxCell>
        <mxCell id="YQ3CQWu9qT-0cRBD3Na1-8" value="Web" style="rounded=1;whiteSpace=wrap;html=1;" parent="1" vertex="1">
          <mxGeometry x="530" y="70" width="120" height="60" as="geometry" />
        </mxCell>
        <mxCell id="YQ3CQWu9qT-0cRBD3Na1-12" style="edgeStyle=orthogonalEdgeStyle;rounded=0;orthogonalLoop=1;jettySize=auto;html=1;" parent="1" source="YQ3CQWu9qT-0cRBD3Na1-9" target="YQ3CQWu9qT-0cRBD3Na1-7" edge="1">
          <mxGeometry relative="1" as="geometry" />
        </mxCell>
        <mxCell id="YQ3CQWu9qT-0cRBD3Na1-20" value="Kafka" style="edgeLabel;html=1;align=center;verticalAlign=middle;resizable=0;points=[];" parent="YQ3CQWu9qT-0cRBD3Na1-12" vertex="1" connectable="0">
          <mxGeometry x="-0.212" y="-2" relative="1" as="geometry">
            <mxPoint as="offset" />
          </mxGeometry>
        </mxCell>
        <mxCell id="YQ3CQWu9qT-0cRBD3Na1-9" value="Kafka" style="shape=cylinder3;whiteSpace=wrap;html=1;boundedLbl=1;backgroundOutline=1;size=15;" parent="1" vertex="1">
          <mxGeometry x="140" y="400" width="60" height="80" as="geometry" />
        </mxCell>
        <mxCell id="B4r_P6-ypOf7uVWQ4bEo-3" style="edgeStyle=orthogonalEdgeStyle;rounded=0;orthogonalLoop=1;jettySize=auto;html=1;entryX=0.5;entryY=1;entryDx=0;entryDy=0;exitX=0.145;exitY=0;exitDx=0;exitDy=4.35;exitPerimeter=0;" edge="1" parent="1" source="YQ3CQWu9qT-0cRBD3Na1-13" target="YQ3CQWu9qT-0cRBD3Na1-1">
          <mxGeometry relative="1" as="geometry">
            <Array as="points">
              <mxPoint x="580" y="404" />
              <mxPoint x="580" y="360" />
              <mxPoint x="440" y="360" />
            </Array>
          </mxGeometry>
        </mxCell>
        <mxCell id="B4r_P6-ypOf7uVWQ4bEo-5" value="SQL" style="edgeLabel;html=1;align=center;verticalAlign=middle;resizable=0;points=[];" vertex="1" connectable="0" parent="B4r_P6-ypOf7uVWQ4bEo-3">
          <mxGeometry x="0.0558" y="4" relative="1" as="geometry">
            <mxPoint as="offset" />
          </mxGeometry>
        </mxCell>
        <mxCell id="YQ3CQWu9qT-0cRBD3Na1-13" value="Database" style="shape=cylinder3;whiteSpace=wrap;html=1;boundedLbl=1;backgroundOutline=1;size=15;" parent="1" vertex="1">
          <mxGeometry x="570" y="400" width="60" height="80" as="geometry" />
        </mxCell>
        <mxCell id="B4r_P6-ypOf7uVWQ4bEo-4" value="Location Receiver Microservice" style="rounded=1;whiteSpace=wrap;html=1;" vertex="1" parent="1">
          <mxGeometry x="110" y="220" width="120" height="60" as="geometry" />
        </mxCell>
      </root>
    </mxGraphModel>
  </diagram>
</mxfile>
